/* XPM */
static char * icon_xpm[] = {
"32 32 442 2",
"  	c None",
". 	c #C5C6C6",
"+ 	c #E1E3E3",
"@ 	c #DDDEDF",
"# 	c #BCCAC3",
"$ 	c #D8E2DE",
"% 	c #D1E4CC",
"& 	c #C0CFAF",
"* 	c #B9D1A8",
"= 	c #9BCFAD",
"- 	c #99CFB1",
"; 	c #A9DDB9",
"> 	c #A8DDB9",
", 	c #A5DAB7",
"' 	c #9DD1B3",
") 	c #A1D2B1",
"! 	c #9BD0B4",
"~ 	c #ABDFBC",
"{ 	c #A9DDBA",
"] 	c #9CD1B3",
"^ 	c #A2D3B1",
"/ 	c #9CD1B4",
"( 	c #A6DAB7",
"_ 	c #A9DEB9",
": 	c #A9DEBA",
"< 	c #9AD0B1",
"[ 	c #9FD1AF",
"} 	c #9CCFB0",
"| 	c #9BD1B1",
"1 	c #A5D9B7",
"2 	c #A3D8B5",
"3 	c #9BD0B0",
"4 	c #9ECEB2",
"5 	c #87BD9A",
"6 	c #83BA97",
"7 	c #B4B2B3",
"8 	c #DEDFE0",
"9 	c #FAF9FC",
"0 	c #FBF9FF",
"a 	c #AAC395",
"b 	c #8EBC9E",
"c 	c #CFD591",
"d 	c #6C656E",
"e 	c #756E73",
"f 	c #90898C",
"g 	c #B7CC84",
"h 	c #8DBFA4",
"i 	c #D4DA90",
"j 	c #6D6570",
"k 	c #7E7682",
"l 	c #C9D78A",
"m 	c #8BC0A7",
"n 	c #BACE80",
"o 	c #958E91",
"p 	c #CFD391",
"q 	c #8BBDA1",
"r 	c #9FC291",
"s 	c #B5B792",
"t 	c #726B71",
"u 	c #746E73",
"v 	c #A09E85",
"w 	c #5B934F",
"x 	c #196F3A",
"y 	c #6CA781",
"z 	c #F3F1F2",
"A 	c #D8DADC",
"B 	c #F8F9FA",
"C 	c #FFFFFF",
"D 	c #A0BD90",
"E 	c #8CB99C",
"F 	c #C5CC83",
"G 	c #342E35",
"H 	c #403A3C",
"I 	c #5D585A",
"J 	c #B6CD7F",
"K 	c #81B99C",
"L 	c #CCD283",
"M 	c #352F38",
"N 	c #47414A",
"O 	c #C7D583",
"P 	c #7FBA9E",
"Q 	c #B8CE7C",
"R 	c #635E5F",
"S 	c #C4CA82",
"T 	c #81B799",
"U 	c #99BF8C",
"V 	c #9C9F76",
"W 	c #3C3639",
"X 	c #3E393B",
"Y 	c #797B5E",
"Z 	c #518C46",
"` 	c #1E713F",
" .	c #5C9C74",
"..	c #BAB5B7",
"+.	c #D4D6D7",
"@.	c #E3E5E6",
"#.	c #94B687",
"$.	c #86B296",
"%.	c #CFC774",
"&.	c #0F0A12",
"*.	c #1E191A",
"=.	c #3B3536",
"-.	c #CAD17B",
";.	c #80B49D",
">.	c #DAD176",
",.	c #100A14",
"'.	c #201B25",
").	c #DAD77B",
"!.	c #7EB4A0",
"~.	c #CDD479",
"{.	c #40393A",
"].	c #1E181A",
"^.	c #100B12",
"/.	c #D0C675",
"(.	c #84B59C",
"_.	c #80A86B",
":.	c #858352",
"<.	c #1A1418",
"[.	c #1D171A",
"}.	c #6D6847",
"|.	c #619248",
"1.	c #1B6E3C",
"2.	c #4D9067",
"3.	c #ACA9AA",
"4.	c #CFD1D4",
"5.	c #EAEBEE",
"6.	c #8BAE7E",
"7.	c #83AE91",
"8.	c #89AE71",
"9.	c #4D5651",
"0.	c #4C5A50",
"a.	c #5B685D",
"b.	c #8EBA7B",
"c.	c #71AA88",
"d.	c #97B979",
"e.	c #4A5450",
"f.	c #4C5953",
"g.	c #97BD7B",
"h.	c #6FAA8A",
"i.	c #90BD7B",
"j.	c #5B675D",
"k.	c #4D5D51",
"l.	c #425149",
"m.	c #679552",
"n.	c #2F7A4D",
"o.	c #45874F",
"p.	c #5C7D53",
"q.	c #36493C",
"r.	c #33493B",
"s.	c #526E4E",
"t.	c #397D41",
"u.	c #196B39",
"v.	c #3D8459",
"w.	c #C8C5C6",
"x.	c #CED0D3",
"y.	c #E3E4E9",
"z.	c #E2DEEA",
"A.	c #89AE7E",
"B.	c #7CAA8F",
"C.	c #69A380",
"D.	c #80AF93",
"E.	c #76AB8A",
"F.	c #7AAD8D",
"G.	c #589C73",
"H.	c #5D9E75",
"I.	c #5A9D75",
"J.	c #83B194",
"K.	c #74AB88",
"L.	c #5D9E77",
"M.	c #5F9F77",
"N.	c #61A17B",
"O.	c #6EA784",
"P.	c #4C8F64",
"Q.	c #3C8356",
"R.	c #1D713E",
"S.	c #227341",
"T.	c #1F713F",
"U.	c #387F54",
"V.	c #3C8156",
"W.	c #347C50",
"X.	c #3A7E55",
"Y.	c #196938",
"Z.	c #176737",
"`.	c #2E774B",
" +	c #E9DFCA",
".+	c #EDDBA3",
"++	c #E7D28F",
"@+	c #799E6C",
"#+	c #73A289",
"$+	c #599A72",
"%+	c #77A48A",
"&+	c #7EA88E",
"*+	c #81A88F",
"=+	c #5B9A7A",
"-+	c #63A07D",
";+	c #689F7E",
">+	c #83AB92",
",+	c #68A07B",
"'+	c #4B936D",
")+	c #418F5D",
"!+	c #1A7240",
"~+	c #3E8157",
"{+	c #387D52",
"]+	c #3B7F55",
"^+	c #1C6E3B",
"/+	c #196C3B",
"(+	c #186A39",
"_+	c #367A50",
":+	c #397B53",
"<+	c #31764C",
"[+	c #387952",
"}+	c #156537",
"|+	c #166637",
"1+	c #206E40",
"2+	c #858387",
"3+	c #413F45",
"4+	c #747368",
"5+	c #629255",
"6+	c #78A169",
"7+	c #696669",
"8+	c #74A56F",
"9+	c #5D9574",
"0+	c #6C9F87",
"a+	c #B1B570",
"b+	c #9B8F74",
"c+	c #4C8E57",
"d+	c #599671",
"e+	c #5E9579",
"f+	c #A1AF65",
"g+	c #645A66",
"h+	c #A59970",
"i+	c #407F53",
"j+	c #35794F",
"k+	c #387B52",
"l+	c #146833",
"m+	c #718C66",
"n+	c #6C8664",
"o+	c #49835B",
"p+	c #32764E",
"q+	c #2F734A",
"r+	c #387852",
"s+	c #156637",
"t+	c #186738",
"u+	c #696568",
"v+	c #231E21",
"w+	c #595546",
"x+	c #6E9763",
"y+	c #659166",
"z+	c #46574C",
"A+	c #64976D",
"B+	c #6D9A7F",
"C+	c #6A9B85",
"D+	c #9FA15D",
"E+	c #605238",
"F+	c #528B5B",
"G+	c #367851",
"H+	c #07602F",
"I+	c #86994E",
"J+	c #0C010E",
"K+	c #70653C",
"L+	c #31754D",
"M+	c #34774F",
"N+	c #126632",
"O+	c #69593D",
"P+	c #5F4E3A",
"Q+	c #156831",
"R+	c #347850",
"S+	c #2F734B",
"T+	c #176738",
"U+	c #908F87",
"V+	c #4C533C",
"W+	c #516238",
"X+	c #678F51",
"Y+	c #478563",
"Z+	c #699A7D",
"`+	c #267547",
" @	c #2B7749",
".@	c #267445",
"+@	c #18683D",
"@@	c #166337",
"#@	c #0E6332",
"$@	c #116433",
"%@	c #136534",
"&@	c #065D2E",
"*@	c #658D74",
"=@	c #0E5F33",
"-@	c #397A53",
";@	c #31744C",
">@	c #33774E",
",@	c #116333",
"'@	c #2D7D50",
")@	c #307F52",
"!@	c #126435",
"~@	c #35784F",
"{@	c #176638",
"]@	c #CEC9C7",
"^@	c #99CCF0",
"/@	c #79CEFF",
"(@	c #DDDBE4",
"_@	c #A9D5FC",
":@	c #2F7548",
"<@	c #57906E",
"[@	c #3C7E58",
"}@	c #357850",
"|@	c #32754E",
"1@	c #30754D",
"2@	c #46815E",
"3@	c #035C28",
"4@	c #3B7B55",
"5@	c #33774F",
"6@	c #0A612A",
"7@	c #867355",
"8@	c #7E6B55",
"9@	c #12652C",
"0@	c #166738",
"a@	c #DCD7D4",
"b@	c #98C5E7",
"c@	c #53B2FC",
"d@	c #429FF4",
"e@	c #70B3E8",
"f@	c #6D8953",
"g@	c #77706C",
"h@	c #3B7C47",
"i@	c #31764D",
"j@	c #33764E",
"k@	c #588B6D",
"l@	c #4A8260",
"m@	c #30754C",
"n@	c #407E58",
"o@	c #3E633F",
"p@	c #395D3E",
"q@	c #46835D",
"r@	c #2E734A",
"s@	c #377751",
"t@	c #136435",
"u@	c #146535",
"v@	c #DED8D7",
"w@	c #87BBE6",
"x@	c #1295FC",
"y@	c #0A7FE6",
"z@	c #3A8FDF",
"A@	c #507E46",
"B@	c #2D4E35",
"C@	c #4F8D5F",
"D@	c #478560",
"E@	c #45835D",
"F@	c #41805A",
"G@	c #3D7E57",
"H@	c #3A7B54",
"I@	c #377A52",
"J@	c #4F8666",
"K@	c #32754D",
"L@	c #31754C",
"M@	c #30744B",
"N@	c #32764D",
"O@	c #357951",
"P@	c #387B54",
"Q@	c #3D7D57",
"R@	c #3E7E58",
"S@	c #3E7F59",
"T@	c #498661",
"U@	c #30794E",
"V@	c #377D53",
"W@	c #2C764A",
"X@	c #B1A9A7",
"Y@	c #7EB6E9",
"Z@	c #008BF9",
"`@	c #0077E3",
" #	c #2781D8",
".#	c #6E9F76",
"+#	c #6B9F80",
"@#	c #6A9D7F",
"##	c #6A9E7F",
"$#	c #6B9E7F",
"%#	c #6B9E80",
"&#	c #6C9F80",
"*#	c #75A089",
"=#	c #579172",
"-#	c #589172",
";#	c #569071",
">#	c #579171",
",#	c #569170",
"'#	c #569171",
")#	c #569070",
"!#	c #559070",
"~#	c #579071",
"{#	c #55906F",
"]#	c #518E6D",
"^#	c #599174",
"/#	c #4F9068",
"(#	c #4F9169",
"_#	c #3E845A",
":#	c #D9D2CD",
"<#	c #66A3E0",
"[#	c #1172E1",
"}#	c #5282C6",
"|#	c #2B70C5",
"1#	c #AACB8C",
"2#	c #A5C87F",
"3#	c #A2C37F",
"4#	c #9DC17F",
"5#	c #93BB7F",
"6#	c #99BD7C",
"7#	c #98BD7E",
"8#	c #96BB7C",
"9#	c #98BE7D",
"0#	c #99BE7D",
"a#	c #96BD7C",
"b#	c #8FB97C",
"c#	c #9BC17B",
"d#	c #ABCC85",
"e#	c #8CC1E6",
"f#	c #3BA5F8",
"g#	c #C3D181",
"h#	c #B7C268",
"i#	c #B2C069",
"j#	c #ADC267",
"k#	c #A3BC69",
"l#	c #A7BA69",
"m#	c #A5B869",
"n#	c #A4BB6A",
"o#	c #A8BC69",
"p#	c #A8BC6A",
"q#	c #A5BC6B",
"r#	c #A0BC6C",
"s#	c #ACBD6C",
"t#	c #BBC672",
"u#	c #C6C2C0",
"v#	c #807B4D",
"w#	c #948656",
"x#	c #8F875A",
"y#	c #908859",
"z#	c #8C895E",
"A#	c #8E8860",
"B#	c #8D8A61",
"C#	c #8C8A60",
"D#	c #8C885F",
"E#	c #8D875F",
"F#	c #8C875E",
"G#	c #8A875D",
"H#	c #8C865B",
"I#	c #8B824C",
"                                                                ",
"                                                                ",
"                                                                ",
"                                                                ",
"                                                                ",
"                                                                ",
"  . +                                                           ",
"    @                                                           ",
"    #                                                           ",
"    $ % & * = - ; > , ' ) ! ~ { ] ^ / ( _ : < [ } | 1 2 3 4 5 6 ",
"  7 8 9 0 a b c d e f g h i j k l m n o e d p q r s t u v w x y ",
"  z A B C D E F G H I J K L M N O P Q R H G S T U V W X Y Z `  .",
"  ..+.@.C #.$.%.&.*.=.-.;.>.,.'.).!.~.{.].^./.(._.:.<.[.}.|.1.2.",
"  3.4.5.C 6.7.8.9.0.a.b.c.d.e.f.g.h.i.j.k.l.m.n.o.p.q.r.s.t.u.v.",
"  w.x.y.z.A.B.C.D.E.F.G.H.I.J.K.L.M.N.O.P.Q.R.S.T.U.V.W.X.Y.Z.`.",
"     +.+++@+#+$+%+&+*+=+-+;+>+,+'+)+!+~+{+]+^+/+(+_+:+<+[+}+|+1+",
"    2+3+4+5+6+7+8+9+0+a+b+c+d+e+f+g+h+i+j+k+l+m+n+o+p+q+r+s+|+t+",
"    u+v+w+x+y+z+A+B+C+D+E+F+G+H+I+J+K+i+L+M+N+O+P+Q+R+S+r+s+T+|+",
"    U+V+W+X+Y+Z+`+ @.@+@@@#@$@%@&@*@=@-@;@>@,@'@)@!@~@S+r+s+{@|+",
"  ]@^@/@(@_@:@<@[@}@S+L+L+|@|@|@1@2@3@4@;@5@6@7@8@9@}@S+r+s+0@|+",
"  a@b@c@d@e@f@g@h@i@j@>@>@>@>@>@<+k@l@<+;@m@n@o@p@q@m@r@s@t@u@Z.",
"  v@w@x@y@z@A@B@C@D@E@F@G@H@I@>@J@K@L@<+M@N@M+O@P@Q@R@S@T@U@V@W@",
"  X@Y@Z@`@ #.#+#@#@###$#%#%#&#*#=#-#;#>#;#,#'#)#!#~#{#]#^#/#(#_#",
"  :#<#[#}#|#                  1#2#3#4#5#6#7#8#9#0#a#b#c#d#      ",
"    e#f#                      g#h#i#j#k#l#m#n#o#p#q#r#s#t#      ",
"    u#                        v#w#x#y#z#A#B#C#D#E#F#G#H#I#      ",
"                                                                ",
"                                                                ",
"                                                                ",
"                                                                ",
"                                                                ",
"                                                                "};
